<?xml version="1.0" encoding="utf-8"?>
<!-- Generator: Adobe Illustrator 22.1.0, SVG Export Plug-In . SVG Version: 6.00 Build 0)  -->
<svg version="1.1" id="图层_1" xmlns="http://www.w3.org/2000/svg" xmlns:xlink="http://www.w3.org/1999/xlink" x="0px" y="0px"
	 viewBox="0 0 1920 820" style="enable-background:new 0 0 1920 820;" xml:space="preserve">
<style type="text/css">
	.st0{fill:#EFEFEF;stroke:#A0A0A0;stroke-width:2;stroke-miterlimit:10;}
	.st1{fill:#D7D9F8;stroke:#A0A0A0;stroke-width:2;stroke-miterlimit:10;}
	.st2{fill:#F8D2B6;stroke:#A0A0A0;stroke-width:2;stroke-miterlimit:10;}
	.st3{fill:#E2C1BB;stroke:#A0A0A0;stroke-width:2;stroke-miterlimit:10;}
	.st4{fill:#C8E2CA;stroke:#A0A0A0;stroke-width:2;stroke-miterlimit:10;}
	.st5{fill:#D0E4F5;stroke:#A0A0A0;stroke-width:2;stroke-miterlimit:10;}
	.st6{font-family:'MicrosoftYaHei';}
	.st7{font-size:24px;}
</style>
<g>
	<polygon id="plane_height30" class="st0" points="591.6,20.6 333.6,220.1 333.6,797 1605.5,797 1605.5,464.6 1572.6,433.1 
		1526.1,408.8 1190.1,408.8 662.1,20.6 	"/>
</g>
<g>
	<path class="st1" d="M353.1,667V465L464,556c0,0,10.6,9.9,13,17c2.4,7.1,2,26,2,26v68H353.1z"/>
	<path class="st1" d="M1574,650.5V465l-207,131c0,0-12.3,8.3-27.3,12s-42.7,3-42.7,3l-18.3-0.1l0.8,35.3L1574,650.5z"/>
</g>
<g>
	<polygon class="st2" points="1212,432 1487,432 1424,492 1283,492 	"/>
	<path class="st2" d="M1279.5,646.2l-0.8-35.3L1134,610c0,0-6.7-1-24,3.7c-17.3,4.7-29,16.3-29,16.3l-13.9,11.7v1.3L1279.5,646.2z"
		/>
</g>
<g>
	<rect x="350" y="698" class="st3" width="76" height="81"/>
	<polygon class="st3" points="634.6,71.2 594.6,40.1 527.2,94.1 566.1,125.6 	"/>
	<polygon class="st3" points="1067.1,643 1067.1,776 1282.3,776 1279.5,646.2 	"/>
	<rect x="733" y="491" class="st3" width="328" height="100"/>
</g>
<g>
	<polygon class="st4" points="381,211.3 353.1,233.6 353.1,368.5 453.6,274.1 	"/>
	<polygon class="st4" points="771.6,709.4 771.6,776 875.1,776 875.1,711 	"/>
	<polygon class="st4" points="744.6,709 744.6,709.1 663.6,709.1 663.6,776 771.6,776 771.6,709.4 	"/>
	<polygon class="st4" points="1574,650.5 1279.5,646.2 1282.3,776 1574,776 	"/>
	<path class="st4" d="M1065.6,643l-60.6,51c0,0-9.7,9-23.3,14.3C968,713.7,943,712,943,712l-67.9-1v65h192V643L1065.6,643z"/>
	<polygon class="st4" points="689.1,113.6 634.6,71.2 566.1,125.6 527.2,94.1 381,211.3 453.6,274.1 651.6,140.6 	"/>
</g>
<g>
	<path class="st5" d="M744.6,709.1L744.6,709.1L744,709c0,0-17.3-5.7-26-8.7S680,672,680,672s-26.3-22.7-37.3-25.3
		c-11-2.7-30.7-2.7-30.7-2.7l-54-1c0,0-12.7-2-24,6s-9,19-9,19v108h138.6v-66.9H744.6z"/>
	<path class="st5" d="M902.1,334.1L651.6,140.6l-198,133.5l-100.5,94.4v27.2l154.5,118.9c0,0,18.5,11.2,33.1,4.4
		c14.1-6.6,20.4-12.4,20.4-12.4l72.5-57c0,0,11.6-7.8,12.4-16.1c1-10.5-10.4-18.5-10.4-18.5l-125-95.9c0,0-8.1-6.6-8.4-12.8
		s11.4-14.2,11.4-14.2l25.5-18.5c0,0,12.6-8.8,19.4-5.8c6.4,3,16.1,11.6,16.1,11.6l125,98.2c0,0,15.4,12.4,30.9,16.2
		s35.1,1.9,35.1,1.9h90c0,0,19.7-0.9,28.1-3.2c8.3-2.3,17.9-10.4,17.9-10.4l11.5-10.5c0,0,6.9-5.9,6.9-15.1S902.1,334.1,902.1,334.1
		z"/>
</g>
<g>
	
		<image style="overflow:visible;enable-background:new    ;" width="128" height="128" xlink:href="icon/42745CF2.png"  transform="matrix(0.3906 0 0 0.3906 870.0016 516.0016)">
	</image>
	
		<image style="overflow:visible;enable-background:new    ;" width="128" height="128" xlink:href="icon/42745CF0.png"  transform="matrix(0.3906 0 0 0.3906 1154.6744 685.1362)">
	</image>
	
		<image style="overflow:visible;enable-background:new    ;" width="128" height="128" xlink:href="icon/42745CF2.png"  transform="matrix(0.3906 0 0 0.3906 556.8901 55.7078)">
	</image>
	
		<image style="overflow:visible;enable-background:new    ;" width="128" height="128" xlink:href="icon/42745CF2.png"  transform="matrix(0.3906 0 0 0.3906 363.0016 711.5063)">
	</image>
</g>
<g>
	<text transform="matrix(1 0 0 1 363.0013 393.0659)" class="st6 st7">B20</text>
	<text transform="matrix(1 0 0 1 403.3686 427.571)" class="st6 st7">B19</text>
	<text transform="matrix(1 0 0 1 445.5308 461.9995)" class="st6 st7">B18</text>
	<text transform="matrix(1 0 0 1 496.5281 498.0674)" class="st6 st7">B17</text>
	<text transform="matrix(1 0 0 1 580.8883 427.571)" class="st6 st7">B16</text>
	<text transform="matrix(1 0 0 1 535.0356 393.066)" class="st6 st7">B15</text>
	<text transform="matrix(1 0 0 1 496.5279 360.0758)" class="st6 st7">B14</text>
	<text transform="matrix(1 0 0 1 453.6155 322.5777)" class="st6 st7">B13</text>
	<text transform="matrix(1 0 0 1 527.2082 246.0815)" class="st6 st7">B12</text>
	<text transform="matrix(1 0 0 1 573.551 274.0972)" class="st6 st7">B11</text>
	<text transform="matrix(1 0 0 1 615.549 301.5788)" class="st6 st7">B10</text>
	<text transform="matrix(1 0 0 1 650.0472 330.8918)" class="st6 st7">B09</text>
	<text transform="matrix(1 0 0 1 692.1037 364.4752)" class="st6 st7">B08</text>
	<text transform="matrix(1 0 0 1 856.5372 355.0766)" class="st6 st7">B07</text>
	<text transform="matrix(1 0 0 1 819.0394 325.0782)" class="st6 st7">B06</text>
	<text transform="matrix(1 0 0 1 777.5995 295.0593)" class="st6 st7">B05</text>
	<text transform="matrix(1 0 0 1 737.9998 263.0811)" class="st6 st7">B04</text>
	<text transform="matrix(1 0 0 1 700.0164 235.0961)" class="st6 st7">B03</text>
	<text transform="matrix(1 0 0 1 660.5502 205.6124)" class="st6 st7">B02</text>
	<text transform="matrix(1 0 0 1 628.569 175.6431)" class="st6 st7">B01</text>
	<text transform="matrix(1 0 0 1 528.2082 764.5032)" class="st6 st7">B26</text>
	<text transform="matrix(1 0 0 1 528.2084 728.4933)" class="st6 st7">B25</text>
	<text transform="matrix(1 0 0 1 528.2079 693.9852)" class="st6 st7">B24</text>
	<text transform="matrix(1 0 0 1 528.2084 658.5234)" class="st6 st7">B23</text>
	<text transform="matrix(1 0 0 1 599.7303 605.3623)" class="st6 st7">B21</text>
	<text transform="matrix(1 0 0 1 598.7302 658.5233)" class="st6 st7">B22</text>
	<text transform="matrix(1 0 0 1 1403.0012 728.4929)" class="st6 st7">办公室</text>
	<text transform="matrix(1 0 0 1 380.9678 603.3619)" class="st6 st7">等候区</text>
	<text transform="matrix(1 0 0 1 1444.0016 606.3617)" class="st6 st7">等候区</text>
	<text transform="matrix(1 0 0 1 1310.5931 469.0002)" class="st6 st7">商务中心</text>
	<text transform="matrix(1 0 0 1 1146.5166 633.0378)" class="st6 st7">服务台</text>
	<text transform="matrix(1 0 0 1 930.0208 751.5277)" class="st6 st7">洽谈区</text>
	<text transform="matrix(1 0 0 1 786.0322 750.5281)" class="st6 st7">会议室</text>
	<text transform="matrix(1 0 0 1 683.0494 750.5271)" class="st6 st7">制作区</text>
	<text transform="matrix(1 0 0 1 479.0226 181.5461)" class="st6 st7">资料存储</text>
	<text transform="matrix(1 0 0 1 343.0564 282.0592)" class="st6 st7">资料存储</text>
</g>
</svg>
