<?xml version="1.0" encoding="utf-8"?>
<!-- Generator: Adobe Illustrator 22.1.0, SVG Export Plug-In . SVG Version: 6.00 Build 0)  -->
<svg version="1.1" id="图层_1" xmlns="http://www.w3.org/2000/svg" xmlns:xlink="http://www.w3.org/1999/xlink" x="0px" y="0px"
	 viewBox="0 0 1920 820" style="enable-background:new 0 0 1920 820;" xml:space="preserve">
<style type="text/css">
	.st0{fill:#EFEFEF;stroke:#A0A0A0;stroke-width:2;stroke-miterlimit:10;}
	.st1{fill:#C8E2CA;stroke:#A0A0A0;stroke-width:2;stroke-miterlimit:10;}
	.st2{fill:#E2C1BB;stroke:#A0A0A0;stroke-width:2;stroke-miterlimit:10;}
	.st3{fill:#D0E4F5;stroke:#A0A0A0;stroke-width:2;stroke-miterlimit:10;}
	.st4{fill:#F8D2B6;stroke:#A0A0A0;stroke-width:2;stroke-miterlimit:10;}
	.st5{font-family:'MicrosoftYaHei';}
	.st6{font-size:24px;}
</style>
<g>
	<path id="plane_height30" class="st0" d="M662.6,18.9c0,0-42.9-11.4-85.7,17.1C534,64.6,359.7,170.3,359.7,170.3
		s-35.7,8.6-35.7,58.6s0,474.3,0,474.3l11.4,40l30,18.6l84.3,48.6h1135.7V693.1l28.6-1.4V410h-174.3L858.3,23.1L662.6,18.9z"/>
</g>
<g>
	<path class="st1" d="M942.6,687.6c0,0-15.4-0.1-34.3-3.2l-0.7,1.7h-73.5l-16.5,15v85.5h133.5v-98.9L942.6,687.6z"/>
	<polygon class="st1" points="1588.6,461.1 1437.1,461.1 1436,517 1415.3,537.1 1588.6,540.1 	"/>
	<polygon class="st1" points="1415.3,537.1 1408.6,543.6 1318.6,599.6 1318.6,635.1 1588.6,635.1 1588.6,540.1 	"/>
</g>
<g>
	<polygon class="st2" points="424.6,680.1 424.6,758.1 457.6,786.6 510.1,786.6 510.1,680.1 	"/>
	<polygon class="st2" points="818.3,46 688.4,47.4 633.6,80.4 696.1,121.9 818.9,46.4 	"/>
	<polygon class="st2" points="1318.6,786.6 1548.1,786.6 1548.1,659.1 1588.6,659.1 1588.6,635.1 1318.6,635.1 	"/>
	<polygon class="st2" points="908.3,476.1 904.4,479.1 906.1,479.1 906.1,578.1 1087.6,578.1 1087.6,476.1 	"/>
</g>
<g>
	<path class="st3" d="M901,683c-22-4.5-41.9-20.4-41.9-20.4s-4.5-6.5-25.6-13.6s-50.4-6.4-50.4-6.4h-84c0,0-29.3-1.5-39.1,8.9
		c-8.5,9-6,28.6-6,28.6v106.5h163.6v-85.5l16.5-15h73.5l0.7-1.7C905.9,684,903.5,683.5,901,683z"/>
	<path class="st3" d="M1075.6,312.6c0,0-27.2-18.3-45.9-18.3c-18.7,0-56.5,24.3-56.5,24.3l-181,111c0,0-18.4,6.6-18.4,27.4
		c0,21.3,40.9,20.6,40.9,20.6l89.8,1.5l3.9-3h179.3h175.5l4.3,1.9l36.2-24.4L1075.6,312.6z"/>
</g>
<g>
	<polygon class="st4" points="846.1,239.1 894.1,210.6 942.6,239.1 894.3,269.1 	"/>
	<path class="st4" d="M696.1,121.9l-62.4-41.5L365.4,241.7v120H544c0,0,31.7-5.2,50-10.6s47.1-29.4,47.1-29.4l177.9-118L696.1,121.9
		z"/>
	<polygon class="st4" points="818.9,46.4 696.1,121.9 819,203.7 942.6,121.7 	"/>
	<path class="st4" d="M1206.1,669.6c0,0-15.1,12.4-37.6,16.4s-67.4,3.1-67.4,3.1l-150-1.4v98.9h367.5V635.1v-35.5L1206.1,669.6z"/>
	<polygon class="st4" points="1263.1,476.1 1087.6,476.1 1087.6,578.1 1095.1,578.1 1119.1,578.1 1267.4,478 	"/>
</g>
<g>
	
		<image style="overflow:visible;enable-background:new;" width="128" height="128" xlink:href="./icon/42745CF3.png"  transform="matrix(0.3906 0 0 0.3906 788.9119 96.0404)">
	</image>
	
		<image style="overflow:visible;enable-background:new;" width="128" height="128" xlink:href="./icon/42745CF6.png"  transform="matrix(0.3906 0 0 0.3906 360.4314 471.6079)">
	</image>
	
		<image style="overflow:visible;enable-background:new;" width="128" height="128" xlink:href="./icon/42745CF2.png"  transform="matrix(0.3906 0 0 0.3906 969 502)">
	</image>
	
		<image style="overflow:visible;enable-background:new;" width="128" height="128" xlink:href="./icon/42745CF0.png"  transform="matrix(0.3906 0 0 0.3906 1410.5658 681.8257)">
	</image>
	
		<image style="overflow:visible;enable-background:new;" width="128" height="128" xlink:href="./icon/42745CF2.png"  transform="matrix(0.3906 0 0 0.3906 442.3651 697.9318)">
	</image>
	
		<image style="overflow:visible;enable-background:new;" width="128" height="128" xlink:href="./icon/42745CF2.png"  transform="matrix(0.3906 0 0 0.3906 677.0535 54.3973)">
	</image>
</g>
<g>
	<text transform="matrix(1 0 0 1 833.5959 424.4427)" class="st5 st6">A00</text>
	<text transform="matrix(1 0 0 1 879.3444 395.6967)" class="st5 st6">A01</text>
	<text transform="matrix(1 0 0 1 923.1042 367.7146)" class="st5 st6">A02</text>
	<text transform="matrix(1 0 0 1 964.0001 343.4518)" class="st5 st6">A03</text>
	<text transform="matrix(1 0 0 1 1006.9991 317.9529)" class="st5 st6">A04</text>
	<text transform="matrix(1 0 0 1 1048.6201 344.7148)" class="st5 st6">A05</text>
	<text transform="matrix(1 0 0 1 1092.0966 371.7145)" class="st5 st6">A06</text>
	<text transform="matrix(1 0 0 1 1134.8319 400.6965)" class="st5 st6">A07</text>
	<text transform="matrix(1 0 0 1 740.1135 667.4358)" class="st5 st6">A08</text>
	<text transform="matrix(1 0 0 1 672.6171 667.8572)" class="st5 st6">A09</text>
	<text transform="matrix(1 0 0 1 661.6172 708.8257)" class="st5 st6">A10</text>
	<text transform="matrix(1 0 0 1 661.6174 747.9315)" class="st5 st6">A11</text>
	<text transform="matrix(1 0 0 1 833.596 246.9555)" class="st5 st6">自助服务区</text>
	<text transform="matrix(1 0 0 1 535.6234 241.8494)" class="st5 st6">等候区</text>
	<text transform="matrix(1 0 0 1 1111.5945 747.9318)" class="st5 st6">控制中心</text>
	<text transform="matrix(1 0 0 1 1434.5657 594.5768)" class="st5 st6">会议室</text>
	<text transform="matrix(1 0 0 1 1476.0765 506.608)" class="st5 st6">办公室</text>
	<text transform="matrix(1 0 0 1 847.9117 745.9317)" class="st5 st6">办公室</text>
	<text transform="matrix(1 0 0 1 1100.5948 517.6075)" class="st5 st6">邮政快递</text>
</g>
</svg>
