<?xml version="1.0" encoding="utf-8"?>

<!-- Generator: Adobe Illustrator 22.1.0, SVG Export Plug-In . SVG Version: 6.00 Build 0)  -->
<svg xmlns="http://www.w3.org/2000/svg" xmlns:xlink="http://www.w3.org/1999/xlink" version="1.1" id="图层_1" x="0px" y="0px" viewBox="0 0 1920 820" style="enable-background:new 0 0 1920 820;" xml:space="preserve">
   <style type="text/css">
	.st0{fill:#EFEFEF;stroke:#A0A0A0;stroke-miterlimit:10;}
	.st1{fill:#D7D9F8;stroke:#A0A0A0;stroke-miterlimit:10;}
	.st2{fill:#E2C1BB;stroke:#A0A0A0;stroke-miterlimit:10;}
	.st3{fill:#C8E2CA;stroke:#A0A0A0;stroke-miterlimit:10;}
	.st4{fill:#D0E4F5;stroke:#A0A0A0;stroke-miterlimit:10;}
	.st5{font-family:'MicrosoftYaHei';}
	.st6{font-size:24px;}
</style>
   <g>
	 
    <polygon id="plane_height30" class="st0" points="568.5,10.5 349.5,189.5 349.5,810.4 1576.4,810.4 1576.4,438.5 1486.4,363.5    1099.4,359 699,9.5  "/>
  </g>
   <g>
	 
    <path class="st1" d="M1434.7,408.8h-268.3l87.4,73.5c0,0,23.1,21.6,50.9,21.6s44.7-21.6,44.7-21.6L1434.7,408.8z"/>
	 
    <polygon class="st1" points="617.5,172.5 722.5,87 665.5,25.5 663.6,25.5 552.6,114.6  "/>
	 
    <path class="st1" d="M372,201.5v123h78c0,0,17-3.2,26.4-8.1c9.4-4.9,24.6-20.4,24.6-20.4l100.5-84l-24.7-19.4l-198.5,3.6L372,201.5   z"/>
	 
    <path class="st1" d="M991,583c0,0-13.8,1.2-27.6,7.8S937,611,937,611L743,772c0,0-14.7,13.7-27.2,12.5S689,770,689,770L551,654   c0,0-14.7-13.4-28.2-12.5C509.3,642.5,496,655,496,655l-68,50v-6.2c-3.2,4.3-5.7,7.3-5.7,7.3v87.6l416.3-2.5l62.3-59L1078,583H991z   "/>
  </g>
   <g>
	 
    <polygon class="st2" points="517,87.5 552.6,114.6 663.6,25.5 586.5,27.5  "/>
	 
    <polygon class="st2" points="729.8,565.2 1019.1,565.2 1036,565 1036,447.6 725.1,447.6  "/>
	 
    <path class="st2" d="M364,676v103l17,15l41.3-0.2v-87.6c0,0,2.4-3.1,5.7-7.3V676H364z"/>
	 
    <polygon class="st2" points="1243.3,618.8 1041.9,618.8 1041.9,732.3 1041.9,790.1 1244.5,788.9 1244.5,732.3 1244.5,618.8  "/>
  </g>
   <g>
	 
    <polygon class="st3" points="901,732.3 838.7,791.3 1041.9,790.1 1041.9,732.3  "/>
	 
    <path class="st3" d="M1214.6,590.1c-14.1-7.8-38.6-7.1-38.6-7.1h-69h-29L901,732.3h140.9V618.8h201.4l2.4-4.6   C1243.2,611.9,1227.5,597.3,1214.6,590.1z"/>
	 
    <polygon class="st3" points="1244.5,732.3 1244.5,788.9 1329.5,788.4 1329.5,732.3  "/>
  </g>
   <g>
	 
    <polygon class="st3" points="378.3,196.1 576.7,192.5 475.5,113  "/>
	 
    <path class="st3" d="M1560,609.6c-14.4-1.4-25.5-2.5-25.5-2.5l-160.7,128.1v52.9L1560,787V609.6z"/>
  </g>
   <g>
	 
    <path class="st4" d="M729.8,565.2l-4.7-117.6H1036V440L747,202c0,0-14-17.5-29.5-17.5S686,202,686,202L565,304c0,0-10.5,6.5-17,20   s-4,33-4,33v198c0,0-0.5,15.5,3,28s14,22,14,22l131,109c0,0,18,10,29,10s26-15,26-15l100-83c0,0,16.5-15.5,20-25s3-34,3-34   l149.1-1.8H729.8z"/>
	 
    <path class="st4" d="M1534.5,607.1c0,0,11.1,1.1,25.5,2.5V445l-189,155c0,0-7.3,8.5-19.5,11.9S1325,615,1325,615l-79-0.5   c0,0-0.1-0.1-0.3-0.3l-2.4,4.6h1.2v113.5h85v56.1l44.3-0.3v-52.9L1534.5,607.1z"/>
  </g>
   <g>
	
		 
    <image style="overflow:visible;enable-background:new    ;" width="128" height="128" xlink:href="icon/42745CF2.png" transform="matrix(0.3906 0 0 0.3906 856.5601 481.3949)">
	</image>
	
		 
    <image style="overflow:visible;enable-background:new    ;" width="128" height="128" xlink:href="icon/42745CF0.png" transform="matrix(0.3906 0 0 0.3906 1117.1925 679.426)">
	</image>
	
		 
    <image style="overflow:visible;enable-background:new    ;" width="128" height="128" xlink:href="icon/42745CF2.png" transform="matrix(0.3906 0 0 0.3906 555.7678 36.2931)">
	</image>
	
		 
    <image style="overflow:visible;enable-background:new    ;" width="128" height="128" xlink:href="icon/42745CF2.png" transform="matrix(0.3906 0 0 0.3906 368.0016 705.4243)">
	</image>
  </g>
   <g>
	 
    <text transform="matrix(1 0 0 1 444.3336 174.5041)" class="st5 st6">洽谈区</text>
	 
    <text transform="matrix(1 0 0 1 418.3584 258.5164)" class="st5 st6">等候区</text>
	 
    <text transform="matrix(1 0 0 1 603.7664 108.5253)" class="st5 st6">等候区</text>
	 
    <text transform="matrix(1 0 0 1 1267.316 454.2502)" class="st5 st6">等候区</text>
	 
    <text transform="matrix(1 0 0 1 1450.1322 735.0002)" class="st5 st6">办公室</text>
	 
    <text transform="matrix(1 0 0 1 1103.8239 609.1271)" class="st5 st6">服务台</text>
	 
    <text transform="matrix(1 0 0 1 959.0001 706.4243)" class="st5 st6">储藏室</text>
	 
    <text transform="matrix(1 0 0 1 935.5557 771.3253)" class="st5 st6">机房</text>
	 
    <text transform="matrix(1 0 0 1 1251.662 772.3259)" class="st5 st6">资料室</text>
	 
    <text transform="matrix(1 0 0 1 485.725 745.9996)" class="st5 st6">商务中心</text>
	 
    <text transform="matrix(1 0 0 1 1245.6621 644.7461)" class="st5 st6">C25</text>
	 
    <text transform="matrix(1 0 0 1 1313.6392 644.746)" class="st5 st6">C26</text>
	 
    <text transform="matrix(1 0 0 1 1377.6359 622.1271)" class="st5 st6">C27</text>
	 
    <text transform="matrix(1 0 0 1 1414.634 589.7455)" class="st5 st6">C28</text>
	 
    <text transform="matrix(1 0 0 1 1450.1323 558.2467)" class="st5 st6">C29</text>
	 
    <text transform="matrix(1 0 0 1 1489.6307 529.7482)" class="st5 st6">C30</text>
	 
    <text transform="matrix(1 0 0 1 1521.1346 499.7495)" class="st5 st6">C31</text>
	 
    <text transform="matrix(1 0 0 1 949.824 431.6337)" class="st5 st6">C24</text>
	 
    <text transform="matrix(1 0 0 1 918.8262 404.9999)" class="st5 st6">C23</text>
	 
    <text transform="matrix(1 0 0 1 882.5583 376.143)" class="st5 st6">C22</text>
	 
    <text transform="matrix(1 0 0 1 845.8298 344.6446)" class="st5 st6">C21</text>
	 
    <text transform="matrix(1 0 0 1 808.3317 314.1462)" class="st5 st6">C20</text>
	 
    <text transform="matrix(1 0 0 1 772.8333 285.1475)" class="st5 st6">C19</text>
	 
    <text transform="matrix(1 0 0 1 736.1907 255.6485)" class="st5 st6">C18</text>
	 
    <text transform="matrix(1 0 0 1 698.3372 223.1507)" class="st5 st6">C17</text>
	 
    <text transform="matrix(1 0 0 1 662.5591 245.6665)" class="st5 st6">C16</text>
	 
    <text transform="matrix(1 0 0 1 630.3539 268.1654)" class="st5 st6">C15</text>
	 
    <text transform="matrix(1 0 0 1 601.4698 296.6639)" class="st5 st6">C14</text>
	 
    <text transform="matrix(1 0 0 1 564.3572 324.4854)" class="st5 st6">C13</text>
	 
    <text transform="matrix(1 0 0 1 551.6319 357.1648)" class="st5 st6">C12</text>
	 
    <text transform="matrix(1 0 0 1 551.6323 400.0001)" class="st5 st6">C11</text>
	 
    <text transform="matrix(1 0 0 1 551.6323 443.0004)" class="st5 st6">C10</text>
	 
    <text transform="matrix(1 0 0 1 551.632 485.3952)" class="st5 st6">C09</text>
	 
    <text transform="matrix(1 0 0 1 551.6317 527.6565)" class="st5 st6">C08</text>
	 
    <text transform="matrix(1 0 0 1 551.6322 571.6541)" class="st5 st6">C07</text>
	 
    <text transform="matrix(1 0 0 1 576.7237 609.1269)" class="st5 st6">C06</text>
	 
    <text transform="matrix(1 0 0 1 611.1498 638.6538)" class="st5 st6">C05</text>
	 
    <text transform="matrix(1 0 0 1 649.148 669.1526)" class="st5 st6">C04</text>
	 
    <text transform="matrix(1 0 0 1 689.1459 704.4241)" class="st5 st6">C03</text>
	 
    <text transform="matrix(1 0 0 1 787.7633 627.6532)" class="st5 st6">C01</text>
	 
    <text transform="matrix(1 0 0 1 749.1906 663.652)" class="st5 st6">C02</text>
  </g>
</svg>